<?xml version="1.0" encoding="utf-8"?>
<!-- Generator: Adobe Illustrator 24.2.3, SVG Export Plug-In . SVG Version: 6.00 Build 0)  -->
<svg version="1.1" id="SvgjsSvg1006" transform="" xmlns:svgjs="http://svgjs.com/svgjs"
	 xmlns="http://www.w3.org/2000/svg" xmlns:xlink="http://www.w3.org/1999/xlink" x="0px" y="0px" viewBox="0 0 3830 3830"
	 style="enable-background:new 0 0 3830 3830;" xml:space="preserve">
<style type="text/css">
	.st0{fill:#228B22;}
</style>
<g id="SvgjsG1009" transform="rotate(0 116.75 74.515625)">
	<g>
		<g>
			<g>
				<path class="st0" d="M2852.4,2459.2c-1.7,0-3.4,0-5.1,0H990.8c-54.3,0-98.5-44.2-98.5-98.5c0-563.4,458.7-1021.5,1023-1021.5
					c557.2,0,1013.1,440.9,1030.3,989.4c3.4,10.1,5.3,21.1,5.3,32.4C2950.9,2415,2906.7,2459.2,2852.4,2459.2z M1095.2,2262h1647.7
					c-49.5-408.3-401.9-726-827.7-726C1493.1,1536,1144.2,1853.7,1095.2,2262z"/>
			</g>
			<g>
				<path class="st0" d="M1915.3,1050.8c-54.3,0-98.5-44.2-98.5-98.5V586.2c0-54.3,43.9-98.5,98.5-98.5c54.6,0,98.5,44.2,98.5,98.5
					v366.1C2013.8,1006.7,1969.6,1050.8,1915.3,1050.8z"/>
			</g>
			<g>
				<path class="st0" d="M3731.9,2498.9h-366.1c-54.3,0-98.5-44.2-98.5-98.5s43.9-98.5,98.5-98.5h366.1c54.3,0,98.5,44.2,98.5,98.5
					S3786.2,2498.9,3731.9,2498.9z"/>
			</g>
			<g>
				<path class="st0" d="M464.8,2498.9H98.1c-54.3,0-98.5-44.2-98.5-98.5s43.9-98.5,98.5-98.5h366.7c54.3,0,98.5,44.2,98.5,98.5
					S519.1,2498.9,464.8,2498.9z"/>
			</g>
			<g>
				<path class="st0" d="M887,1472.4c-25.3,0-50.4-9.6-69.5-29L562.2,1189c-38.3-38.3-38.3-100.7-0.3-139.3
					c38.6-38.8,100.7-38.6,139.3,0l255.3,254.7c38.6,38.3,38.6,100.7,0.3,139.3C937.3,1462.8,912.3,1472.4,887,1472.4z"/>
			</g>
			<g>
				<path class="st0" d="M2943,1472.4c-25.3,0-50.7-9.6-69.8-29c-38.3-38.6-38.3-100.7,0.3-139.3l255-254.7
					c38.6-38.6,100.7-38.6,139.3,0c38.3,38.6,38.3,100.7-0.3,139.3l-255,254.7C2993.4,1462.8,2968.4,1472.4,2943,1472.4z"/>
			</g>
			<g>
				<path class="st0" d="M2656.3,2904.7H1173.7c-54.3,0-98.5-44.2-98.5-98.5s43.9-98.5,98.5-98.5h1482.5c54.3,0,98.5,44.2,98.5,98.5
					S2710.6,2904.7,2656.3,2904.7z"/>
			</g>
			<g>
				<path class="st0" d="M2273.5,3342.2h-709.2c-54.3,0-98.5-44.2-98.5-98.5s43.9-98.5,98.5-98.5h709.2c54.3,0,98.5,44.2,98.5,98.5
					S2328.1,3342.2,2273.5,3342.2z"/>
			</g>
		</g>
	</g>
</g>
</svg>
